# xmcd
#
# Track frame offsets:
# 150
# 20000
# 35785
# 50375
# 62265
# 78040
# 92507
# 110047
# 125842
# 138925
# 157357
# 172035
# 187822
# 203615
# 220455
# 229690
# 243095
# 256910
# 273942
# 288925
#
# Disc length: 4096 seconds
#
#
# Revision: 13
# Processed by: cddbd v1.5.1PL0 Copyright (c) Steve Scherf et al.
# Submitted via: MCataloguer 1.2.6 
#
DISCID=190ffe14
DTITLE=邓丽君 - 极品音色系列 [CD1]
DYEAR=2000
DGENRE=blues
TTITLE0=恰似你的温柔
TTITLE1=月亮代表我的心
TTITLE2=海韵
TTITLE3=小城故事
TTITLE4=甜蜜蜜
TTITLE5=东山飘雨西山晴
TTITLE6=爱像一首歌
TTITLE7=再见！我的爱人
TTITLE8=何日君再来
TTITLE9=初次尝到寂寞
TTITLE10=夜来香
TTITLE11=千言万语
TTITLE12=风从那里来
TTITLE13=泪的小雨
TTITLE14=路边野花不要采
TTITLE15=一个小心愿
TTITLE16=假如我是真的
TTITLE17=情人的关怀
TTITLE18=难忘初恋的情人
TTITLE19=但愿人长久
EXTD=
EXTT0=
EXTT1=
EXTT2=
EXTT3=
EXTT4=
EXTT5=
EXTT6=
EXTT7=
EXTT8=
EXTT9=
EXTT10=
EXTT11=
EXTT12=
EXTT13=
EXTT14=
EXTT15=
EXTT16=
EXTT17=
EXTT18=
EXTT19=
PLAYORDER=
